<svg width="782.04441" height="701.88002" xmlns="http://www.w3.org/2000/svg" data-name="Layer 1">

 <g>
  <title>Layer 1</title>
  <path id="svg_1" fill="#f2f2f2" d="m400.51003,1.53016l-25.44631,6.56209l-313.50417,80.84646l-25.44635,6.56209a48.17927,48.17927 0 0 0 -34.583,58.61786l110.341,427.87741a48.17924,48.17924 0 0 0 58.61776,34.58317l0.06572,-0.01695l364.26536,-93.93675l0.06572,-0.01695a48.17923,48.17923 0 0 0 34.58309,-58.6178l-110.341,-427.87741a48.17928,48.17928 0 0 0 -58.61782,-34.58322z"/>
  <path id="svg_2" fill="#fff" d="m403.97004,14.94533l-30.13945,7.77236l-304.11884,78.42617l-30.139,7.77223a34.30949,34.30949 0 0 0 -24.6275,41.74308l110.341,427.87741a34.30946,34.30946 0 0 0 41.7431,24.62736l0.06572,-0.01695l364.26536,-93.93674l0.06619,-0.01707a34.30935,34.30935 0 0 0 24.627,-41.7429l-110.341,-427.87741a34.30938,34.30938 0 0 0 -41.74258,-24.62754z"/>
  <path id="svg_3" fill="#f2f2f2" d="m381.2122,153.50328l-184.273,47.52032a8.01411,8.01411 0 0 1 -4.00241,-15.52046l184.273,-47.52033a8.01412,8.01412 0 0 1 4.00241,15.52047z"/>
  <path id="svg_4" fill="#f2f2f2" d="m419.9772,171.43907l-216.284,55.77531a8.01411,8.01411 0 1 1 -4.00241,-15.52046l216.284,-55.77531a8.01411,8.01411 0 0 1 4.00242,15.52046l-0.00001,0z"/>
  <path id="svg_5" fill="#f2f2f2" d="m411.48045,270.87677l-184.273,47.52032a8.01411,8.01411 0 1 1 -4.00242,-15.52046l184.273,-47.52032a8.01411,8.01411 0 1 1 4.00241,15.52046l0.00001,0z"/>
  <path id="svg_6" fill="#f2f2f2" d="m450.24549,288.81256l-216.284,55.77531a8.01411,8.01411 0 1 1 -4.00242,-15.52046l216.284,-55.77531a8.01411,8.01411 0 0 1 4.00242,15.52046z"/>
  <path id="svg_7" fill="#f2f2f2" d="m441.74873,388.25026l-184.273,47.52033a8.01412,8.01412 0 0 1 -4.00242,-15.52047l184.273,-47.52032a8.01411,8.01411 0 0 1 4.00242,15.52046z"/>
  <path id="svg_8" fill="#f2f2f2" d="m480.51376,406.18601l-216.284,55.77532a8.01412,8.01412 0 1 1 -4.00241,-15.52047l216.284,-55.77531a8.01411,8.01411 0 0 1 4.00242,15.52046l-0.00001,0z"/>
  <path id="svg_9" fill="#e6e6e6" d="m165.48104,249.74872l-65.21246,16.817a3.847,3.847 0 0 1 -4.68062,-2.76146l-14.96946,-58.04818a3.847,3.847 0 0 1 2.76145,-4.68061l65.21247,-16.817a3.847,3.847 0 0 1 4.68061,2.76145l14.96947,58.04817a3.847,3.847 0 0 1 -2.76146,4.68063z"/>
  <path id="svg_10" fill="#e6e6e6" d="m195.74932,367.12221l-65.21247,16.817a3.847,3.847 0 0 1 -4.68062,-2.76146l-14.96946,-58.04816a3.847,3.847 0 0 1 2.76143,-4.68058l65.21246,-16.817a3.847,3.847 0 0 1 4.68062,2.76145l14.96946,58.04817a3.847,3.847 0 0 1 -2.76142,4.68058z"/>
  <path id="svg_11" fill="#e6e6e6" d="m226.01759,484.4957l-65.21246,16.817a3.847,3.847 0 0 1 -4.68062,-2.76145l-14.96946,-58.04817a3.847,3.847 0 0 1 2.76145,-4.68062l65.21247,-16.817a3.847,3.847 0 0 1 4.68061,2.76146l14.96947,58.04816a3.847,3.847 0 0 1 -2.76146,4.68062z"/>
  <path id="svg_12" fill="#e6e6e6" d="m654.65867,109.99171l-376.31836,0a48.17928,48.17928 0 0 0 -48.125,48.12512l0,441.87579a48.17924,48.17924 0 0 0 48.125,48.12507l376.31836,0a48.17924,48.17924 0 0 0 48.125,-48.12507l0,-441.87579a48.17928,48.17928 0 0 0 -48.125,-48.12512z"/>
  <path id="svg_13" fill="#fff" d="m654.6592,123.8459l-376.31889,0a34.30948,34.30948 0 0 0 -34.271,34.27093l0,441.87579a34.30947,34.30947 0 0 0 34.271,34.27088l376.31889,0a34.30936,34.30936 0 0 0 34.27051,-34.27088l0,-441.87579a34.30937,34.30937 0 0 0 -34.27051,-34.27093z"/>
  <circle id="svg_14" fill="#262626" r="87.85039" cy="614.02963" cx="694.19401"/>
  <path id="svg_15" fill="#fff" d="m736.20942,602.57088l-30.55666,0l0,-30.55666a11.45875,11.45875 0 0 0 -22.9175,0l0,30.55666l-30.55666,0a11.45875,11.45875 0 0 0 0,22.9175l30.55666,0l0,30.55663a11.45875,11.45875 0 1 0 22.9175,0l0,-30.55663l30.55666,0a11.45875,11.45875 0 0 0 0,-22.9175z"/>
  <path id="svg_16" fill="#e6e6e6" d="m598.02288,366.65552l-190.30168,0a8.01412,8.01412 0 1 1 0,-16.02823l190.30168,0a8.01412,8.01412 0 0 1 0,16.02823z"/>
  <path id="svg_17" fill="#e6e6e6" d="m631.08109,393.70315l-223.35989,0a8.01412,8.01412 0 1 1 0,-16.02823l223.35989,0a8.01411,8.01411 0 1 1 0,16.02823z"/>
  <path id="svg_18" fill="#e6e6e6" d="m598.02288,487.86901l-190.30168,0a8.01412,8.01412 0 1 1 0,-16.02823l190.30168,0a8.01411,8.01411 0 0 1 0,16.02823z"/>
  <path id="svg_19" fill="#e6e6e6" d="m631.08109,514.91662l-223.35989,0a8.01412,8.01412 0 1 1 0,-16.02823l223.35989,0a8.01412,8.01412 0 1 1 0,16.02823z"/>
  <path id="svg_20" fill="#e6e6e6" d="m365.09248,405.98163l-67.34594,0a3.847,3.847 0 0 1 -3.84278,-3.84278l0,-59.94726a3.847,3.847 0 0 1 3.84278,-3.84278l67.34594,0a3.847,3.847 0 0 1 3.84278,3.84278l0,59.94726a3.847,3.847 0 0 1 -3.84278,3.84278z"/>
  <path id="svg_21" fill="#e6e6e6" d="m365.09248,527.1951l-67.34594,0a3.847,3.847 0 0 1 -3.84278,-3.84278l0,-59.94726a3.847,3.847 0 0 1 3.84278,-3.84278l67.34594,0a3.847,3.847 0 0 1 3.84278,3.84278l0,59.94726a3.847,3.847 0 0 1 -3.84278,3.84278z"/>
  <path id="svg_22" fill="#ccc" d="m598.23405,231.72101l-140.30168,0a8.01411,8.01411 0 0 1 0,-16.02823l140.30168,0a8.01411,8.01411 0 0 1 0,16.02823z"/>
  <path id="svg_23" fill="#ccc" d="m631.29227,258.76863l-173.3599,0a8.01411,8.01411 0 1 1 0,-16.02822l173.3599,0a8.01411,8.01411 0 0 1 0,16.02822z"/>
  <path id="svg_24" fill="#262626" d="m426.88131,291.54711l-129.34595,0a3.847,3.847 0 0 1 -3.84277,-3.84277l0,-100.94727a3.847,3.847 0 0 1 3.84277,-3.84277l129.34595,0a3.847,3.847 0 0 1 3.84277,3.84277l0,100.94727a3.847,3.847 0 0 1 -3.84277,3.84277z"/>
 </g>
</svg>